<?xml version="1.0" encoding="UTF-8" standalone="no"?>
<!-- Created with Inkscape (http://www.inkscape.org/) -->

<svg
   width="512"
   height="512"
   viewBox="0 0 512 512"
   version="1.1"
   id="svg1"
   xmlns="http://www.w3.org/2000/svg"
   xmlns:svg="http://www.w3.org/2000/svg">
  <defs
     id="defs1" />
  <g
     id="layer1">
    <g
       id="text1-8"
       style="white-space:pre"
       transform="matrix(2.1221751,0,0,2.1221751,-184.13624,-215.01461)"
       aria-label="Missing.">
      <path
         style="font-size:53.3333px;font-family:Exo;-inkscape-font-specification:Exo;fill:#00ffff"
         d="m 117.87594,236.57654 4.47999,-39.25331 h 4.32 l 10.45333,33.91998 10.23999,-33.91998 h 4.37333 l 4.58667,39.25331 h -4.10667 l -3.94666,-34.39998 0.69333,0.10667 -9.91999,34.29331 h -3.89333 l -10.18667,-34.23998 0.8,-0.10666 -3.78666,34.34664 z m 46.18669,-33.54664 q -0.85334,0 -0.85334,-0.85334 v -4.15999 q 0,-0.85334 0.85334,-0.85334 h 2.98666 q 0.42667,0 0.58667,0.26667 0.21333,0.21333 0.21333,0.58667 v 4.15999 q 0,0.85334 -0.8,0.85334 z m -0.64,33.54664 v -28.47998 h 4.21333 v 28.47998 z m 22.13337,0.32 q -1.06667,0 -2.61333,-0.0533 -1.54667,-0.0533 -3.25334,-0.16 -1.65333,-0.10667 -3.03999,-0.21333 -1.33334,-0.16 -2.08,-0.32 v -2.56 h 11.67999 q 1.76,0 3.04,-0.26667 1.28,-0.26667 1.97333,-1.17333 0.74667,-0.90667 0.74667,-2.72 v -1.28 q 0,-1.86666 -1.22667,-2.88 -1.22667,-1.06666 -3.94666,-1.06666 h -4 q -2.50667,0 -4.48,-0.64 -1.92,-0.64 -2.98666,-2.18667 -1.06667,-1.54666 -1.06667,-4.26666 v -1.49334 q 0,-2.66666 1.01333,-4.37333 1.06667,-1.70666 3.25333,-2.55999 2.24,-0.85334 5.76,-0.85334 1.49333,0 3.41333,0.10667 1.97333,0.10667 3.84,0.32 1.86667,0.16 3.04,0.37333 v 2.56 H 183.636 q -2.72,0 -4.21333,0.90667 -1.44,0.90666 -1.44,3.51999 v 1.17334 q 0,1.65333 0.69333,2.50666 0.69333,0.8 1.92,1.06667 1.28,0.26667 2.93333,0.26667 h 4.05333 q 3.89333,0 6.02667,1.81333 2.13333,1.81333 2.13333,5.22666 v 1.97333 q 0,2.88 -1.33333,4.48 -1.28,1.54667 -3.57334,2.18667 -2.23999,0.58666 -5.27999,0.58666 z m 26.66665,0 q -1.06667,0 -2.61334,-0.0533 -1.54666,-0.0533 -3.25333,-0.16 -1.65333,-0.10667 -3.04,-0.21333 -1.33333,-0.16 -2.07999,-0.32 v -2.56 h 11.67999 q 1.76,0 3.04,-0.26667 1.28,-0.26667 1.97333,-1.17333 0.74667,-0.90667 0.74667,-2.72 v -1.28 q 0,-1.86666 -1.22667,-2.88 -1.22667,-1.06666 -3.94666,-1.06666 h -4 q -2.50667,0 -4.48,-0.64 -1.92,-0.64 -2.98666,-2.18667 -1.06667,-1.54666 -1.06667,-4.26666 v -1.49334 q 0,-2.66666 1.01333,-4.37333 1.06667,-1.70666 3.25333,-2.55999 2.24,-0.85334 5.76,-0.85334 1.49333,0 3.41333,0.10667 1.97333,0.10667 3.84,0.32 1.86666,0.16 3.04,0.37333 v 2.56 h -10.98666 q -2.72,0 -4.21333,0.90667 -1.44,0.90666 -1.44,3.51999 v 1.17334 q 0,1.65333 0.69333,2.50666 0.69333,0.8 1.92,1.06667 1.28,0.26667 2.93333,0.26667 h 4.05333 q 3.89333,0 6.02666,1.81333 2.13334,1.81333 2.13334,5.22666 v 1.97333 q 0,2.88 -1.33334,4.48 -1.28,1.54667 -3.57333,2.18667 -2.24,0.58666 -5.27999,0.58666 z m 17.49332,-33.86664 q -0.85334,0 -0.85334,-0.85334 v -4.15999 q 0,-0.85334 0.85334,-0.85334 h 2.98666 q 0.42667,0 0.58667,0.26667 0.21333,0.21333 0.21333,0.58667 v 4.15999 q 0,0.85334 -0.8,0.85334 z m -0.64,33.54664 v -28.47998 h 4.21333 v 28.47998 z m 12.32004,0 v -28.47998 h 3.30667 l 0.90666,3.14666 q 2.02667,-1.44 4.74667,-2.50666 2.72,-1.12 5.65333,-1.12 3.14666,0 5.06666,1.33333 1.92,1.33333 2.82667,3.52 0.90666,2.18667 0.90666,4.74666 v 19.35999 H 260.596 v -18.87999 q 0,-1.81333 -0.74666,-3.19999 -0.69334,-1.44 -2.02667,-2.24 -1.28,-0.8 -3.2,-0.8 -1.76,0 -3.30666,0.37333 -1.49334,0.32 -2.88,0.96 -1.33333,0.58667 -2.82667,1.44 v 22.34665 z m 38.3466,13.06666 q -2.77333,0 -4.90666,-0.8 -2.08,-0.74666 -3.30666,-2.34666 -1.17334,-1.54667 -1.17334,-3.89333 v -1.28 q 0,-2.45334 1.33334,-4.10667 1.38666,-1.65333 3.46666,-2.45333 2.08,-0.85333 4.26667,-0.85333 l 1.06666,1.70666 q -1.6,0 -2.98666,0.53334 -1.38667,0.48 -2.29334,1.59999 -0.85333,1.12 -0.85333,2.88 v 1.17334 q 0,2.55999 1.70667,3.62666 1.70666,1.12 4.63999,1.12 h 6.61333 q 3.2,0 5.01333,-1.22667 1.86667,-1.22666 1.86667,-3.83999 v -1.06667 q 0,-1.49333 -0.58667,-2.56 -0.58666,-1.06666 -1.97333,-1.65333 -1.33333,-0.58667 -3.78666,-0.58667 h -8.58666 q -3.30667,0 -5.17334,-1.38666 -1.81333,-1.44 -1.81333,-3.68 0,-2.13333 1.22667,-3.36 1.28,-1.22666 3.57333,-1.70666 -1.97333,-0.8 -3.09333,-2.13334 -1.12,-1.38666 -1.54667,-2.93333 -0.42666,-1.6 -0.42666,-3.2 0,-3.30666 1.33333,-5.33333 1.33333,-2.02666 3.78666,-2.93333 2.50667,-0.90666 5.86667,-0.90666 h 15.19999 v 2.39999 l -6.4,0.53334 q 0.69333,0.48 1.54667,1.28 0.85333,0.74666 1.44,2.18666 0.64,1.38667 0.64,3.84 0,2.18667 -0.96,4.16 -0.90667,1.97333 -3.09334,3.25333 -2.18666,1.22666 -6.02666,1.22666 h -4.53333 q -2.24,0 -3.57333,0.69334 -1.28,0.64 -1.28,2.34666 0,1.28 0.96,1.81334 0.96,0.53333 2.02667,0.53333 h 9.43999 q 3.30666,0 5.44,0.85333 2.18666,0.85333 3.25333,2.61333 1.12,1.70667 1.12,4.37333 v 1.17334 q 0,3.89333 -2.66667,6.07999 -2.61333,2.24 -7.83999,2.24 z m 1.97334,-25.97332 h 3.2 q 2.71999,0 4.10666,-0.8 1.44,-0.85333 1.97333,-2.18666 0.53333,-1.33333 0.53333,-2.88 0,-2.4 -0.8,-3.78666 -0.74666,-1.44 -2.13333,-2.02667 -1.38666,-0.64 -3.2,-0.64 h -3.03999 q -3.04,0 -4.8,1.38667 -1.70667,1.33333 -1.70667,4.69333 0,3.30666 1.54667,4.79999 1.6,1.44 4.32,1.44 z"
         id="path3" />
      <path
         style="fill:#00ffff"
         d="m 300.28662,235.92854 q 0,-0.444 0.216,-0.624 0.216,-0.18 0.516,-0.18 0.312,0 0.528,0.18 0.228,0.18 0.228,0.624 0,0.432 -0.228,0.624 -0.216,0.192 -0.528,0.192 -0.3,0 -0.516,-0.192 -0.216,-0.192 -0.216,-0.624 z"
         id="path4" />
    </g>
    <g
       id="text1-8-1"
       style="white-space:pre"
       transform="matrix(2.1221751,0,0,2.1221751,-180.03814,-211.23522)"
       aria-label="Missing.">
      <path
         style="font-size:53.3333px;font-family:Exo;-inkscape-font-specification:Exo;fill:#ff0000"
         d="m 117.87594,236.57654 4.47999,-39.25331 h 4.32 l 10.45333,33.91998 10.23999,-33.91998 h 4.37333 l 4.58667,39.25331 h -4.10667 l -3.94666,-34.39998 0.69333,0.10667 -9.91999,34.29331 h -3.89333 l -10.18667,-34.23998 0.8,-0.10666 -3.78666,34.34664 z m 46.18669,-33.54664 q -0.85334,0 -0.85334,-0.85334 v -4.15999 q 0,-0.85334 0.85334,-0.85334 h 2.98666 q 0.42667,0 0.58667,0.26667 0.21333,0.21333 0.21333,0.58667 v 4.15999 q 0,0.85334 -0.8,0.85334 z m -0.64,33.54664 v -28.47998 h 4.21333 v 28.47998 z m 22.13337,0.32 q -1.06667,0 -2.61333,-0.0533 -1.54667,-0.0533 -3.25334,-0.16 -1.65333,-0.10667 -3.03999,-0.21333 -1.33334,-0.16 -2.08,-0.32 v -2.56 h 11.67999 q 1.76,0 3.04,-0.26667 1.28,-0.26667 1.97333,-1.17333 0.74667,-0.90667 0.74667,-2.72 v -1.28 q 0,-1.86666 -1.22667,-2.88 -1.22667,-1.06666 -3.94666,-1.06666 h -4 q -2.50667,0 -4.48,-0.64 -1.92,-0.64 -2.98666,-2.18667 -1.06667,-1.54666 -1.06667,-4.26666 v -1.49334 q 0,-2.66666 1.01333,-4.37333 1.06667,-1.70666 3.25333,-2.55999 2.24,-0.85334 5.76,-0.85334 1.49333,0 3.41333,0.10667 1.97333,0.10667 3.84,0.32 1.86667,0.16 3.04,0.37333 v 2.56 H 183.636 q -2.72,0 -4.21333,0.90667 -1.44,0.90666 -1.44,3.51999 v 1.17334 q 0,1.65333 0.69333,2.50666 0.69333,0.8 1.92,1.06667 1.28,0.26667 2.93333,0.26667 h 4.05333 q 3.89333,0 6.02667,1.81333 2.13333,1.81333 2.13333,5.22666 v 1.97333 q 0,2.88 -1.33333,4.48 -1.28,1.54667 -3.57334,2.18667 -2.23999,0.58666 -5.27999,0.58666 z m 26.66665,0 q -1.06667,0 -2.61334,-0.0533 -1.54666,-0.0533 -3.25333,-0.16 -1.65333,-0.10667 -3.04,-0.21333 -1.33333,-0.16 -2.07999,-0.32 v -2.56 h 11.67999 q 1.76,0 3.04,-0.26667 1.28,-0.26667 1.97333,-1.17333 0.74667,-0.90667 0.74667,-2.72 v -1.28 q 0,-1.86666 -1.22667,-2.88 -1.22667,-1.06666 -3.94666,-1.06666 h -4 q -2.50667,0 -4.48,-0.64 -1.92,-0.64 -2.98666,-2.18667 -1.06667,-1.54666 -1.06667,-4.26666 v -1.49334 q 0,-2.66666 1.01333,-4.37333 1.06667,-1.70666 3.25333,-2.55999 2.24,-0.85334 5.76,-0.85334 1.49333,0 3.41333,0.10667 1.97333,0.10667 3.84,0.32 1.86666,0.16 3.04,0.37333 v 2.56 h -10.98666 q -2.72,0 -4.21333,0.90667 -1.44,0.90666 -1.44,3.51999 v 1.17334 q 0,1.65333 0.69333,2.50666 0.69333,0.8 1.92,1.06667 1.28,0.26667 2.93333,0.26667 h 4.05333 q 3.89333,0 6.02666,1.81333 2.13334,1.81333 2.13334,5.22666 v 1.97333 q 0,2.88 -1.33334,4.48 -1.28,1.54667 -3.57333,2.18667 -2.24,0.58666 -5.27999,0.58666 z m 17.49332,-33.86664 q -0.85334,0 -0.85334,-0.85334 v -4.15999 q 0,-0.85334 0.85334,-0.85334 h 2.98666 q 0.42667,0 0.58667,0.26667 0.21333,0.21333 0.21333,0.58667 v 4.15999 q 0,0.85334 -0.8,0.85334 z m -0.64,33.54664 v -28.47998 h 4.21333 v 28.47998 z m 12.32004,0 v -28.47998 h 3.30667 l 0.90666,3.14666 q 2.02667,-1.44 4.74667,-2.50666 2.72,-1.12 5.65333,-1.12 3.14666,0 5.06666,1.33333 1.92,1.33333 2.82667,3.52 0.90666,2.18667 0.90666,4.74666 v 19.35999 H 260.596 v -18.87999 q 0,-1.81333 -0.74666,-3.19999 -0.69334,-1.44 -2.02667,-2.24 -1.28,-0.8 -3.2,-0.8 -1.76,0 -3.30666,0.37333 -1.49334,0.32 -2.88,0.96 -1.33333,0.58667 -2.82667,1.44 v 22.34665 z m 38.3466,13.06666 q -2.77333,0 -4.90666,-0.8 -2.08,-0.74666 -3.30666,-2.34666 -1.17334,-1.54667 -1.17334,-3.89333 v -1.28 q 0,-2.45334 1.33334,-4.10667 1.38666,-1.65333 3.46666,-2.45333 2.08,-0.85333 4.26667,-0.85333 l 1.06666,1.70666 q -1.6,0 -2.98666,0.53334 -1.38667,0.48 -2.29334,1.59999 -0.85333,1.12 -0.85333,2.88 v 1.17334 q 0,2.55999 1.70667,3.62666 1.70666,1.12 4.63999,1.12 h 6.61333 q 3.2,0 5.01333,-1.22667 1.86667,-1.22666 1.86667,-3.83999 v -1.06667 q 0,-1.49333 -0.58667,-2.56 -0.58666,-1.06666 -1.97333,-1.65333 -1.33333,-0.58667 -3.78666,-0.58667 h -8.58666 q -3.30667,0 -5.17334,-1.38666 -1.81333,-1.44 -1.81333,-3.68 0,-2.13333 1.22667,-3.36 1.28,-1.22666 3.57333,-1.70666 -1.97333,-0.8 -3.09333,-2.13334 -1.12,-1.38666 -1.54667,-2.93333 -0.42666,-1.6 -0.42666,-3.2 0,-3.30666 1.33333,-5.33333 1.33333,-2.02666 3.78666,-2.93333 2.50667,-0.90666 5.86667,-0.90666 h 15.19999 v 2.39999 l -6.4,0.53334 q 0.69333,0.48 1.54667,1.28 0.85333,0.74666 1.44,2.18666 0.64,1.38667 0.64,3.84 0,2.18667 -0.96,4.16 -0.90667,1.97333 -3.09334,3.25333 -2.18666,1.22666 -6.02666,1.22666 h -4.53333 q -2.24,0 -3.57333,0.69334 -1.28,0.64 -1.28,2.34666 0,1.28 0.96,1.81334 0.96,0.53333 2.02667,0.53333 h 9.43999 q 3.30666,0 5.44,0.85333 2.18666,0.85333 3.25333,2.61333 1.12,1.70667 1.12,4.37333 v 1.17334 q 0,3.89333 -2.66667,6.07999 -2.61333,2.24 -7.83999,2.24 z m 1.97334,-25.97332 h 3.2 q 2.71999,0 4.10666,-0.8 1.44,-0.85333 1.97333,-2.18666 0.53333,-1.33333 0.53333,-2.88 0,-2.4 -0.8,-3.78666 -0.74666,-1.44 -2.13333,-2.02667 -1.38666,-0.64 -3.2,-0.64 h -3.03999 q -3.04,0 -4.8,1.38667 -1.70667,1.33333 -1.70667,4.69333 0,3.30666 1.54667,4.79999 1.6,1.44 4.32,1.44 z"
         id="path5" />
      <path
         style="fill:#ff0000"
         d="m 300.28662,235.92854 q 0,-0.444 0.216,-0.624 0.216,-0.18 0.516,-0.18 0.312,0 0.528,0.18 0.228,0.18 0.228,0.624 0,0.432 -0.228,0.624 -0.216,0.192 -0.528,0.192 -0.3,0 -0.516,-0.192 -0.216,-0.192 -0.216,-0.624 z"
         id="path6" />
    </g>
    <g
       id="text1"
       style="white-space:pre;fill:#ffffff"
       transform="matrix(2.1221751,0,0,2.1221751,-182.07458,-213.01321)"
       aria-label="Missing.">
      <path
         style="font-size:53.3333px;font-family:Exo;-inkscape-font-specification:Exo"
         d="m 117.87594,236.57654 4.47999,-39.25331 h 4.32 l 10.45333,33.91998 10.23999,-33.91998 h 4.37333 l 4.58667,39.25331 h -4.10667 l -3.94666,-34.39998 0.69333,0.10667 -9.91999,34.29331 h -3.89333 l -10.18667,-34.23998 0.8,-0.10666 -3.78666,34.34664 z m 46.18669,-33.54664 q -0.85334,0 -0.85334,-0.85334 v -4.15999 q 0,-0.85334 0.85334,-0.85334 h 2.98666 q 0.42667,0 0.58667,0.26667 0.21333,0.21333 0.21333,0.58667 v 4.15999 q 0,0.85334 -0.8,0.85334 z m -0.64,33.54664 v -28.47998 h 4.21333 v 28.47998 z m 22.13337,0.32 q -1.06667,0 -2.61333,-0.0533 -1.54667,-0.0533 -3.25334,-0.16 -1.65333,-0.10667 -3.03999,-0.21333 -1.33334,-0.16 -2.08,-0.32 v -2.56 h 11.67999 q 1.76,0 3.04,-0.26667 1.28,-0.26667 1.97333,-1.17333 0.74667,-0.90667 0.74667,-2.72 v -1.28 q 0,-1.86666 -1.22667,-2.88 -1.22667,-1.06666 -3.94666,-1.06666 h -4 q -2.50667,0 -4.48,-0.64 -1.92,-0.64 -2.98666,-2.18667 -1.06667,-1.54666 -1.06667,-4.26666 v -1.49334 q 0,-2.66666 1.01333,-4.37333 1.06667,-1.70666 3.25333,-2.55999 2.24,-0.85334 5.76,-0.85334 1.49333,0 3.41333,0.10667 1.97333,0.10667 3.84,0.32 1.86667,0.16 3.04,0.37333 v 2.56 H 183.636 q -2.72,0 -4.21333,0.90667 -1.44,0.90666 -1.44,3.51999 v 1.17334 q 0,1.65333 0.69333,2.50666 0.69333,0.8 1.92,1.06667 1.28,0.26667 2.93333,0.26667 h 4.05333 q 3.89333,0 6.02667,1.81333 2.13333,1.81333 2.13333,5.22666 v 1.97333 q 0,2.88 -1.33333,4.48 -1.28,1.54667 -3.57334,2.18667 -2.23999,0.58666 -5.27999,0.58666 z m 26.66665,0 q -1.06667,0 -2.61334,-0.0533 -1.54666,-0.0533 -3.25333,-0.16 -1.65333,-0.10667 -3.04,-0.21333 -1.33333,-0.16 -2.07999,-0.32 v -2.56 h 11.67999 q 1.76,0 3.04,-0.26667 1.28,-0.26667 1.97333,-1.17333 0.74667,-0.90667 0.74667,-2.72 v -1.28 q 0,-1.86666 -1.22667,-2.88 -1.22667,-1.06666 -3.94666,-1.06666 h -4 q -2.50667,0 -4.48,-0.64 -1.92,-0.64 -2.98666,-2.18667 -1.06667,-1.54666 -1.06667,-4.26666 v -1.49334 q 0,-2.66666 1.01333,-4.37333 1.06667,-1.70666 3.25333,-2.55999 2.24,-0.85334 5.76,-0.85334 1.49333,0 3.41333,0.10667 1.97333,0.10667 3.84,0.32 1.86666,0.16 3.04,0.37333 v 2.56 h -10.98666 q -2.72,0 -4.21333,0.90667 -1.44,0.90666 -1.44,3.51999 v 1.17334 q 0,1.65333 0.69333,2.50666 0.69333,0.8 1.92,1.06667 1.28,0.26667 2.93333,0.26667 h 4.05333 q 3.89333,0 6.02666,1.81333 2.13334,1.81333 2.13334,5.22666 v 1.97333 q 0,2.88 -1.33334,4.48 -1.28,1.54667 -3.57333,2.18667 -2.24,0.58666 -5.27999,0.58666 z m 17.49332,-33.86664 q -0.85334,0 -0.85334,-0.85334 v -4.15999 q 0,-0.85334 0.85334,-0.85334 h 2.98666 q 0.42667,0 0.58667,0.26667 0.21333,0.21333 0.21333,0.58667 v 4.15999 q 0,0.85334 -0.8,0.85334 z m -0.64,33.54664 v -28.47998 h 4.21333 v 28.47998 z m 12.32004,0 v -28.47998 h 3.30667 l 0.90666,3.14666 q 2.02667,-1.44 4.74667,-2.50666 2.72,-1.12 5.65333,-1.12 3.14666,0 5.06666,1.33333 1.92,1.33333 2.82667,3.52 0.90666,2.18667 0.90666,4.74666 v 19.35999 H 260.596 v -18.87999 q 0,-1.81333 -0.74666,-3.19999 -0.69334,-1.44 -2.02667,-2.24 -1.28,-0.8 -3.2,-0.8 -1.76,0 -3.30666,0.37333 -1.49334,0.32 -2.88,0.96 -1.33333,0.58667 -2.82667,1.44 v 22.34665 z m 38.3466,13.06666 q -2.77333,0 -4.90666,-0.8 -2.08,-0.74666 -3.30666,-2.34666 -1.17334,-1.54667 -1.17334,-3.89333 v -1.28 q 0,-2.45334 1.33334,-4.10667 1.38666,-1.65333 3.46666,-2.45333 2.08,-0.85333 4.26667,-0.85333 l 1.06666,1.70666 q -1.6,0 -2.98666,0.53334 -1.38667,0.48 -2.29334,1.59999 -0.85333,1.12 -0.85333,2.88 v 1.17334 q 0,2.55999 1.70667,3.62666 1.70666,1.12 4.63999,1.12 h 6.61333 q 3.2,0 5.01333,-1.22667 1.86667,-1.22666 1.86667,-3.83999 v -1.06667 q 0,-1.49333 -0.58667,-2.56 -0.58666,-1.06666 -1.97333,-1.65333 -1.33333,-0.58667 -3.78666,-0.58667 h -8.58666 q -3.30667,0 -5.17334,-1.38666 -1.81333,-1.44 -1.81333,-3.68 0,-2.13333 1.22667,-3.36 1.28,-1.22666 3.57333,-1.70666 -1.97333,-0.8 -3.09333,-2.13334 -1.12,-1.38666 -1.54667,-2.93333 -0.42666,-1.6 -0.42666,-3.2 0,-3.30666 1.33333,-5.33333 1.33333,-2.02666 3.78666,-2.93333 2.50667,-0.90666 5.86667,-0.90666 h 15.19999 v 2.39999 l -6.4,0.53334 q 0.69333,0.48 1.54667,1.28 0.85333,0.74666 1.44,2.18666 0.64,1.38667 0.64,3.84 0,2.18667 -0.96,4.16 -0.90667,1.97333 -3.09334,3.25333 -2.18666,1.22666 -6.02666,1.22666 h -4.53333 q -2.24,0 -3.57333,0.69334 -1.28,0.64 -1.28,2.34666 0,1.28 0.96,1.81334 0.96,0.53333 2.02667,0.53333 h 9.43999 q 3.30666,0 5.44,0.85333 2.18666,0.85333 3.25333,2.61333 1.12,1.70667 1.12,4.37333 v 1.17334 q 0,3.89333 -2.66667,6.07999 -2.61333,2.24 -7.83999,2.24 z m 1.97334,-25.97332 h 3.2 q 2.71999,0 4.10666,-0.8 1.44,-0.85333 1.97333,-2.18666 0.53333,-1.33333 0.53333,-2.88 0,-2.4 -0.8,-3.78666 -0.74666,-1.44 -2.13333,-2.02667 -1.38666,-0.64 -3.2,-0.64 h -3.03999 q -3.04,0 -4.8,1.38667 -1.70667,1.33333 -1.70667,4.69333 0,3.30666 1.54667,4.79999 1.6,1.44 4.32,1.44 z"
         id="path7" />
      <path
         d="m 300.28662,235.92854 q 0,-0.444 0.216,-0.624 0.216,-0.18 0.516,-0.18 0.312,0 0.528,0.18 0.228,0.18 0.228,0.624 0,0.432 -0.228,0.624 -0.216,0.192 -0.528,0.192 -0.3,0 -0.516,-0.192 -0.216,-0.192 -0.216,-0.624 z"
         id="path8" />
    </g>
  </g>
</svg>
